<svg width="100%" height="100%" id="svg" viewBox="0 0 1440 490" xmlns="http://www.w3.org/2000/svg" class="transition duration-300 ease-in-out delay-150"><defs><linearGradient id="gradient" x1="0%" y1="50%" x2="100%" y2="50%"><stop offset="5%" stop-color="#8ed1fc"></stop><stop offset="95%" stop-color="#8ED1FC"></stop></linearGradient></defs><path d="M 0,500 L 0,125 C 105.83732057416267,94.8468899521531 211.67464114832535,64.69377990430621 297,86 C 382.32535885167465,107.30622009569379 447.1387559808612,180.07177033492823 540,180 C 632.8612440191388,179.92822966507177 753.7703349282298,107.01913875598086 858,94 C 962.2296650717702,80.98086124401914 1049.77990430622,127.85167464114832 1144,143 C 1238.22009569378,158.14832535885168 1339.11004784689,141.57416267942585 1440,125 L 1440,500 L 0,500 Z" stroke="none" stroke-width="0" fill="url(#gradient)" fill-opacity="0.53" class="transition-all duration-300 ease-in-out delay-150 path-0"></path><defs><linearGradient id="gradient" x1="0%" y1="50%" x2="100%" y2="50%"><stop offset="5%" stop-color="#8ed1fc"></stop><stop offset="95%" stop-color="#8ED1FC"></stop></linearGradient></defs><path d="M 0,500 L 0,291 C 124.9090909090909,276.0430622009569 249.8181818181818,261.0861244019139 330,272 C 410.1818181818182,282.9138755980861 445.63636363636374,319.6985645933014 527,315 C 608.3636363636363,310.3014354066986 735.6363636363636,264.11961722488036 835,268 C 934.3636363636364,271.88038277511964 1005.8181818181818,325.82296650717706 1102,338 C 1198.1818181818182,350.17703349282294 1319.090909090909,320.58851674641147 1440,291 L 1440,500 L 0,500 Z" stroke="none" stroke-width="0" fill="url(#gradient)" fill-opacity="1" class="transition-all duration-300 ease-in-out delay-150 path-1"></path></svg>